<mxfile host="app.diagrams.net" modified="2021-05-16T08:28:32.610Z" agent="5.0 (Macintosh; Intel Mac OS X 10_15_7) AppleWebKit/537.36 (KHTML, like Gecko) Chrome/86.0.4240.193 Safari/537.36" etag="VMSmF-vTQ0eLHg3fpqW9" version="14.6.13" type="github">
  <diagram id="GfRRkDCDRypREgJTUXhh" name="Page-1">
    <mxGraphModel dx="946" dy="536" grid="1" gridSize="10" guides="1" tooltips="1" connect="1" arrows="1" fold="1" page="1" pageScale="1" pageWidth="827" pageHeight="1169" math="0" shadow="0">
      <root>
        <mxCell id="0" />
        <mxCell id="1" parent="0" />
        <mxCell id="s0RcJym4h4lc6dDOGxQs-1" value="" style="rounded=1;whiteSpace=wrap;html=1;fillColor=#ffe6cc;strokeColor=#d79b00;" vertex="1" parent="1">
          <mxGeometry x="20" y="110" width="614" height="210" as="geometry" />
        </mxCell>
        <mxCell id="s0RcJym4h4lc6dDOGxQs-2" value="InnoDB存储引擎" style="text;html=1;strokeColor=none;fillColor=none;align=center;verticalAlign=middle;whiteSpace=wrap;rounded=0;" vertex="1" parent="1">
          <mxGeometry x="270" y="130" width="116" height="10" as="geometry" />
        </mxCell>
        <mxCell id="s0RcJym4h4lc6dDOGxQs-3" value="Buffer Pool 缓冲池&lt;br&gt;3. 更新数据页中的数据" style="rounded=1;whiteSpace=wrap;html=1;fillColor=#dae8fc;strokeColor=#6c8ebf;" vertex="1" parent="1">
          <mxGeometry x="220" y="180" width="230" height="100" as="geometry" />
        </mxCell>
        <mxCell id="s0RcJym4h4lc6dDOGxQs-4" value="Redo Log Buffer&lt;br&gt;4. 写redolog" style="rounded=1;whiteSpace=wrap;html=1;fillColor=#d5e8d4;strokeColor=#82b366;" vertex="1" parent="1">
          <mxGeometry x="480" y="180" width="140" height="100" as="geometry" />
        </mxCell>
        <mxCell id="s0RcJym4h4lc6dDOGxQs-6" style="edgeStyle=orthogonalEdgeStyle;rounded=0;orthogonalLoop=1;jettySize=auto;html=1;exitX=0.5;exitY=0;exitDx=0;exitDy=0;entryX=0.5;entryY=1;entryDx=0;entryDy=0;" edge="1" parent="1" source="s0RcJym4h4lc6dDOGxQs-5" target="s0RcJym4h4lc6dDOGxQs-3">
          <mxGeometry relative="1" as="geometry" />
        </mxCell>
        <mxCell id="s0RcJym4h4lc6dDOGxQs-9" value="1. 将磁盘文件加载到Buffer Pool" style="edgeLabel;html=1;align=center;verticalAlign=middle;resizable=0;points=[];" vertex="1" connectable="0" parent="s0RcJym4h4lc6dDOGxQs-6">
          <mxGeometry x="-0.2182" y="-2" relative="1" as="geometry">
            <mxPoint as="offset" />
          </mxGeometry>
        </mxCell>
        <mxCell id="s0RcJym4h4lc6dDOGxQs-5" value="磁盘文件" style="rounded=1;whiteSpace=wrap;html=1;fillColor=#fff2cc;strokeColor=#d6b656;" vertex="1" parent="1">
          <mxGeometry x="275" y="390" width="120" height="60" as="geometry" />
        </mxCell>
        <mxCell id="s0RcJym4h4lc6dDOGxQs-7" value="Undo Log&lt;br&gt;2. 写undolog便于回滚" style="rounded=1;whiteSpace=wrap;html=1;fillColor=#f5f5f5;strokeColor=#666666;fontColor=#333333;" vertex="1" parent="1">
          <mxGeometry x="40" y="180" width="140" height="100" as="geometry" />
        </mxCell>
      </root>
    </mxGraphModel>
  </diagram>
</mxfile>
